<svg xmlns="http://www.w3.org/2000/svg" xmlns:xlink="http://www.w3.org/1999/xlink" width="500" zoomAndPan="magnify" viewBox="0 0 375 374.999991" height="500" preserveAspectRatio="xMidYMid meet" version="1.0"><defs><clipPath id="ad339d3080"><path d="M 0 29 L 375 29 L 375 337.527344 L 0 337.527344 Z M 0 29 " clip-rule="nonzero"/></clipPath></defs><g clip-path="url(#ad339d3080)"><path fill="#000000" d="M 30.246094 78.632812 L 37.507812 78.632812 L 37.507812 53.230469 C 37.507812 50.566406 39.683594 48.390625 42.34375 48.390625 L 95.570312 48.390625 C 98.230469 48.390625 100.40625 50.566406 100.40625 53.230469 L 100.40625 78.632812 L 118.816406 78.632812 C 125.082031 58.570312 132.257812 37.214844 153.84375 29.070312 C 174.550781 29.070312 195.261719 29.070312 215.96875 29.070312 C 239.875 27.777344 250.300781 60.328125 256.242188 78.632812 L 344.753906 78.632812 C 361.386719 78.632812 374.992188 92.242188 374.992188 108.878906 L 374.992188 307.28125 C 374.992188 323.917969 361.386719 337.527344 344.753906 337.527344 L 30.246094 337.527344 C 13.613281 337.527344 0.0078125 323.917969 0.0078125 307.28125 L 0.0078125 108.878906 C 0.0078125 92.242188 13.613281 78.632812 30.246094 78.632812 Z M 85.890625 56.859375 L 85.890625 78.632812 L 90.730469 78.632812 L 90.730469 56.859375 Z M 81.054688 78.632812 L 81.054688 56.859375 L 76.214844 56.859375 L 76.214844 78.632812 Z M 71.375 78.632812 L 71.375 56.859375 L 66.539062 56.859375 L 66.539062 78.632812 Z M 61.699219 78.632812 L 61.699219 56.859375 L 56.859375 56.859375 L 56.859375 78.632812 Z M 52.023438 78.632812 L 52.023438 56.859375 L 47.183594 56.859375 L 47.183594 78.632812 Z M 156.050781 41.167969 C 196.371094 41.167969 216.53125 41.167969 216.53125 41.167969 C 226.207031 41.167969 234.949219 52.199219 243.144531 77.460938 C 243.144531 77.460938 206.046875 77.460938 131.855469 77.460938 C 138.265625 56.929688 146.332031 44.832031 156.050781 41.167969 Z M 30.246094 90.730469 L 344.753906 90.730469 C 354.734375 90.730469 362.898438 98.898438 362.898438 108.878906 L 362.898438 307.28125 C 362.898438 317.261719 354.734375 325.429688 344.753906 325.429688 L 30.246094 325.429688 C 20.265625 325.429688 12.101562 317.261719 12.101562 307.28125 L 12.101562 108.878906 C 12.101562 98.898438 20.265625 90.730469 30.246094 90.730469 Z M 30.246094 90.730469 " fill-opacity="1" fill-rule="evenodd"/></g><path fill="#000000" d="M 274.59375 104.039062 L 322.980469 104.039062 L 322.980469 128.234375 L 274.59375 128.234375 Z M 279.433594 108.878906 L 318.140625 108.878906 L 318.140625 123.394531 L 279.433594 123.394531 Z M 279.433594 108.878906 " fill-opacity="1" fill-rule="evenodd"/><path fill="#000000" d="M 235.527344 142.753906 L 284.269531 142.753906 L 284.269531 147.589844 L 241.988281 147.589844 C 239.917969 145.878906 237.757812 144.265625 235.527344 142.753906 Z M 235.527344 142.753906 " fill-opacity="1" fill-rule="evenodd"/><path fill="#000000" d="M 10.894531 142.753906 L 140.683594 142.753906 C 138.449219 144.265625 136.292969 145.878906 134.21875 147.589844 L 10.894531 147.589844 Z M 10.894531 142.753906 " fill-opacity="1" fill-rule="evenodd"/><path fill="#000000" d="M 308.464844 142.753906 L 347.171875 142.753906 L 347.171875 147.589844 L 308.464844 147.589844 Z M 308.464844 142.753906 " fill-opacity="1" fill-rule="evenodd"/><path fill="#000000" d="M 236.96875 282.085938 L 345.960938 282.085938 L 345.960938 289.132812 L 225.050781 289.132812 C 229.226562 287.105469 233.210938 284.746094 236.96875 282.085938 Z M 236.96875 282.085938 " fill-opacity="1" fill-rule="evenodd"/><path fill="#000000" d="M 12.101562 282.085938 L 139.242188 282.085938 C 143 284.746094 146.984375 287.105469 151.160156 289.132812 L 12.101562 289.132812 Z M 12.101562 282.085938 " fill-opacity="1" fill-rule="evenodd"/><path fill="#000000" d="M 188.105469 157.875 C 218.503906 157.875 243.144531 182.515625 243.144531 212.917969 C 243.144531 243.320312 218.503906 267.960938 188.105469 267.960938 C 157.707031 267.960938 133.066406 243.320312 133.066406 212.917969 C 133.066406 182.515625 157.707031 157.875 188.105469 157.875 Z M 188.105469 165.132812 C 214.492188 165.132812 235.886719 186.527344 235.886719 212.917969 C 235.886719 239.308594 214.492188 260.703125 188.105469 260.703125 C 161.714844 260.703125 140.324219 239.308594 140.324219 212.917969 C 140.324219 186.527344 161.714844 165.132812 188.105469 165.132812 Z M 188.105469 165.132812 " fill-opacity="1" fill-rule="evenodd"/><path fill="#000000" d="M 188.105469 128.234375 C 234.871094 128.234375 272.777344 166.148438 272.777344 212.917969 C 272.777344 259.691406 234.871094 297.601562 188.105469 297.601562 C 141.339844 297.601562 103.429688 259.691406 103.429688 212.917969 C 103.429688 166.148438 141.339844 128.234375 188.105469 128.234375 Z M 188.105469 139.402344 C 228.703125 139.402344 261.613281 172.316406 261.613281 212.917969 C 261.613281 253.523438 228.703125 286.4375 188.105469 286.4375 C 147.507812 286.4375 114.597656 253.523438 114.597656 212.917969 C 114.597656 172.316406 147.507812 139.402344 188.105469 139.402344 Z M 188.105469 139.402344 " fill-opacity="1" fill-rule="evenodd"/><path fill="#000000" d="M 208.0625 185.261719 C 215.65625 185.261719 221.808594 191.414062 221.808594 199.003906 C 221.808594 206.597656 215.65625 212.75 208.0625 212.75 C 200.472656 212.75 194.320312 206.597656 194.320312 199.003906 C 194.320312 191.414062 200.472656 185.261719 208.0625 185.261719 Z M 208.0625 187.074219 C 214.652344 187.074219 219.996094 192.414062 219.996094 199.003906 C 219.996094 205.597656 214.652344 210.9375 208.0625 210.9375 C 201.476562 210.9375 196.132812 205.597656 196.132812 199.003906 C 196.132812 192.414062 201.476562 187.074219 208.0625 187.074219 Z M 208.0625 187.074219 " fill-opacity="1" fill-rule="evenodd"/></svg>