<svg xmlns="http://www.w3.org/2000/svg" xmlns:xlink="http://www.w3.org/1999/xlink" width="638" zoomAndPan="magnify" viewBox="0 0 478.5 161.249994" height="215" preserveAspectRatio="xMidYMid meet" version="1.0"><defs><g/></defs><g fill="#000000" fill-opacity="1"><g transform="translate(21.640502, 137.239481)"><g><path d="M 112.75 -111.265625 C 115.519531 -110.734375 117.597656 -109.796875 118.984375 -108.453125 C 120.367188 -107.117188 121.0625 -105.554688 121.0625 -103.765625 C 121.0625 -100.816406 120.234375 -98.671875 118.578125 -97.328125 C 116.921875 -95.984375 114.304688 -95.445312 110.734375 -95.71875 C 102.691406 -96.34375 96.410156 -96.765625 91.890625 -96.984375 C 87.378906 -97.210938 81.460938 -97.375 74.140625 -97.46875 C 70.828125 -81.019531 67.785156 -64.484375 65.015625 -47.859375 C 64.035156 -41.785156 63.007812 -34.75 61.9375 -26.75 C 60.863281 -18.75 60.148438 -12.289062 59.796875 -7.375 C 59.617188 -4.78125 58.546875 -2.789062 56.578125 -1.40625 C 54.609375 -0.0195312 52.238281 0.671875 49.46875 0.671875 C 46.519531 0.671875 44.238281 -0.0390625 42.625 -1.46875 C 41.019531 -2.90625 40.21875 -4.785156 40.21875 -7.109375 C 40.21875 -9.253906 40.550781 -12.804688 41.21875 -17.765625 C 41.894531 -22.722656 42.679688 -27.925781 43.578125 -33.375 C 44.554688 -38.832031 45.3125 -43.570312 45.84375 -47.59375 C 46.832031 -54.382812 47.953125 -61.128906 49.203125 -67.828125 C 50.453125 -74.535156 51.703125 -80.882812 52.953125 -86.875 C 53.222656 -88.21875 53.535156 -89.757812 53.890625 -91.5 C 54.242188 -93.238281 54.644531 -95.179688 55.09375 -97.328125 C 46.34375 -97.054688 39.460938 -96.335938 34.453125 -95.171875 C 29.453125 -94.015625 25.898438 -92.382812 23.796875 -90.28125 C 21.691406 -88.1875 20.640625 -85.488281 20.640625 -82.1875 C 20.640625 -79.144531 21.535156 -76.238281 23.328125 -73.46875 C 23.679688 -72.84375 23.859375 -72.171875 23.859375 -71.453125 C 23.859375 -69.753906 22.851562 -68.164062 20.84375 -66.6875 C 18.832031 -65.21875 16.753906 -64.484375 14.609375 -64.484375 C 13.085938 -64.484375 11.835938 -64.929688 10.859375 -65.828125 C 9.066406 -67.347656 7.585938 -69.515625 6.421875 -72.328125 C 5.265625 -75.140625 4.6875 -78.332031 4.6875 -81.90625 C 4.6875 -89.507812 7.164062 -95.609375 12.125 -100.203125 C 17.09375 -104.804688 24.644531 -108.179688 34.78125 -110.328125 C 44.925781 -112.472656 57.957031 -113.546875 73.875 -113.546875 C 83.695312 -113.546875 91.535156 -113.367188 97.390625 -113.015625 C 103.242188 -112.660156 108.363281 -112.078125 112.75 -111.265625 Z M 112.75 -111.265625 "/></g></g></g><g fill="#000000" fill-opacity="1"><g transform="translate(115.080721, 137.239481)"><g><path d="M 80.84375 -29.890625 C 82 -29.890625 82.910156 -29.351562 83.578125 -28.28125 C 84.253906 -27.207031 84.59375 -25.734375 84.59375 -23.859375 C 84.59375 -20.285156 83.742188 -17.515625 82.046875 -15.546875 C 77.929688 -10.816406 73.707031 -6.929688 69.375 -3.890625 C 65.039062 -0.847656 60.101562 0.671875 54.5625 0.671875 C 50 0.671875 46.554688 -0.644531 44.234375 -3.28125 C 41.910156 -5.914062 40.75 -9.738281 40.75 -14.75 C 40.75 -17.25 41.375 -21.71875 42.625 -28.15625 C 43.789062 -33.78125 44.375 -37.664062 44.375 -39.8125 C 44.375 -41.25 43.882812 -41.96875 42.90625 -41.96875 C 41.738281 -41.96875 40.082031 -40.46875 37.9375 -37.46875 C 35.789062 -34.476562 33.644531 -30.523438 31.5 -25.609375 C 29.351562 -20.691406 27.613281 -15.507812 26.28125 -10.0625 C 24.582031 -2.90625 20.378906 0.671875 13.671875 0.671875 C 10.992188 0.671875 9.226562 -0.285156 8.375 -2.203125 C 7.53125 -4.128906 7.109375 -7.597656 7.109375 -12.609375 C 7.109375 -15.460938 7.148438 -17.738281 7.234375 -19.4375 L 7.375 -30.171875 C 7.375 -43.929688 8.78125 -58.273438 11.59375 -73.203125 C 14.40625 -88.128906 18.5625 -100.660156 24.0625 -110.796875 C 29.5625 -120.941406 36.15625 -126.015625 43.84375 -126.015625 C 47.945312 -126.015625 51.269531 -124.25 53.8125 -120.71875 C 56.363281 -117.1875 57.640625 -112.609375 57.640625 -106.984375 C 57.640625 -97.953125 55.003906 -88.585938 49.734375 -78.890625 C 44.460938 -69.191406 35.882812 -57.863281 24 -44.90625 C 23.726562 -40.257812 23.59375 -35.476562 23.59375 -30.5625 C 26.539062 -38.164062 29.820312 -44.359375 33.4375 -49.140625 C 37.0625 -53.921875 40.640625 -57.335938 44.171875 -59.390625 C 47.703125 -61.441406 50.941406 -62.46875 53.890625 -62.46875 C 59.703125 -62.46875 62.609375 -59.566406 62.609375 -53.765625 C 62.609375 -50.273438 61.625 -43.972656 59.65625 -34.859375 C 57.957031 -27.078125 57.109375 -21.9375 57.109375 -19.4375 C 57.109375 -15.863281 58.40625 -14.078125 61 -14.078125 C 62.789062 -14.078125 64.910156 -15.171875 67.359375 -17.359375 C 69.816406 -19.546875 73.101562 -23.097656 77.21875 -28.015625 C 78.289062 -29.265625 79.5 -29.890625 80.84375 -29.890625 Z M 41.015625 -112.75 C 39.410156 -112.75 37.625 -110.445312 35.65625 -105.84375 C 33.695312 -101.238281 31.800781 -95.023438 29.96875 -87.203125 C 28.132812 -79.390625 26.632812 -70.878906 25.46875 -61.671875 C 31.007812 -68.191406 35.585938 -75.296875 39.203125 -82.984375 C 42.828125 -90.671875 44.640625 -97.644531 44.640625 -103.90625 C 44.640625 -106.757812 44.328125 -108.945312 43.703125 -110.46875 C 43.078125 -111.988281 42.179688 -112.75 41.015625 -112.75 Z M 41.015625 -112.75 "/></g></g></g><g fill="#000000" fill-opacity="1"><g transform="translate(182.379126, 137.239481)"><g><path d="M 20.109375 0.671875 C 16.085938 0.671875 12.800781 -1.179688 10.25 -4.890625 C 7.707031 -8.597656 6.4375 -13.222656 6.4375 -18.765625 C 6.4375 -25.472656 6.878906 -31.617188 7.765625 -37.203125 C 8.660156 -42.785156 10.140625 -48.707031 12.203125 -54.96875 C 13.097656 -57.644531 14.347656 -59.5625 15.953125 -60.71875 C 17.554688 -61.882812 20.101562 -62.46875 23.59375 -62.46875 C 25.5625 -62.46875 26.925781 -62.15625 27.6875 -61.53125 C 28.445312 -60.90625 28.828125 -59.96875 28.828125 -58.71875 C 28.828125 -58 28.332031 -55.585938 27.34375 -51.484375 C 26.457031 -48.171875 25.742188 -45.175781 25.203125 -42.5 C 23.410156 -33.113281 22.515625 -26.859375 22.515625 -23.734375 C 22.515625 -21.847656 22.738281 -20.523438 23.1875 -19.765625 C 23.632812 -19.015625 24.351562 -18.640625 25.34375 -18.640625 C 26.675781 -18.640625 28.347656 -19.976562 30.359375 -22.65625 C 32.367188 -25.332031 34.515625 -29.394531 36.796875 -34.84375 C 39.078125 -40.300781 41.289062 -47.007812 43.4375 -54.96875 C 44.15625 -57.644531 45.25 -59.5625 46.71875 -60.71875 C 48.195312 -61.882812 50.410156 -62.46875 53.359375 -62.46875 C 55.410156 -62.46875 56.835938 -62.222656 57.640625 -61.734375 C 58.453125 -61.242188 58.859375 -60.328125 58.859375 -58.984375 C 58.859375 -56.753906 57.738281 -50.632812 55.5 -40.625 C 53 -29.1875 51.75 -22.125 51.75 -19.4375 C 51.75 -17.738281 52.101562 -16.421875 52.8125 -15.484375 C 53.53125 -14.546875 54.472656 -14.078125 55.640625 -14.078125 C 57.421875 -14.078125 59.539062 -15.171875 62 -17.359375 C 64.457031 -19.546875 67.742188 -23.097656 71.859375 -28.015625 C 72.929688 -29.265625 74.140625 -29.890625 75.484375 -29.890625 C 76.640625 -29.890625 77.550781 -29.351562 78.21875 -28.28125 C 78.894531 -27.207031 79.234375 -25.734375 79.234375 -23.859375 C 79.234375 -20.285156 78.382812 -17.515625 76.6875 -15.546875 C 72.84375 -10.816406 68.707031 -6.929688 64.28125 -3.890625 C 59.851562 -0.847656 54.828125 0.671875 49.203125 0.671875 C 44.910156 0.671875 41.757812 -0.976562 39.75 -4.28125 C 37.738281 -7.59375 36.734375 -12.242188 36.734375 -18.234375 C 35.210938 -12.148438 32.929688 -7.476562 29.890625 -4.21875 C 26.859375 -0.957031 23.597656 0.671875 20.109375 0.671875 Z M 20.109375 0.671875 "/></g></g></g><g fill="#000000" fill-opacity="1"><g transform="translate(244.315095, 137.239481)"><g><path d="M 66.234375 -29.890625 C 67.390625 -29.890625 68.300781 -29.351562 68.96875 -28.28125 C 69.644531 -27.207031 69.984375 -25.734375 69.984375 -23.859375 C 69.984375 -20.285156 69.132812 -17.515625 67.4375 -15.546875 C 64.125 -11.523438 59.453125 -7.816406 53.421875 -4.421875 C 47.390625 -1.023438 40.929688 0.671875 34.046875 0.671875 C 24.660156 0.671875 17.375 -1.875 12.1875 -6.96875 C 7.007812 -12.0625 4.421875 -19.035156 4.421875 -27.890625 C 4.421875 -34.054688 5.71875 -39.796875 8.3125 -45.109375 C 10.90625 -50.429688 14.503906 -54.65625 19.109375 -57.78125 C 23.710938 -60.90625 28.914062 -62.46875 34.71875 -62.46875 C 39.90625 -62.46875 44.0625 -60.925781 47.1875 -57.84375 C 50.3125 -54.757812 51.875 -50.582031 51.875 -45.3125 C 51.875 -39.144531 49.660156 -33.847656 45.234375 -29.421875 C 40.816406 -25.003906 33.335938 -21.5 22.796875 -18.90625 C 25.023438 -14.789062 29.269531 -12.734375 35.53125 -12.734375 C 39.550781 -12.734375 44.128906 -14.140625 49.265625 -16.953125 C 54.410156 -19.773438 58.859375 -23.460938 62.609375 -28.015625 C 63.679688 -29.265625 64.890625 -29.890625 66.234375 -29.890625 Z M 32.4375 -49.328125 C 29.132812 -49.328125 26.34375 -47.40625 24.0625 -43.5625 C 21.78125 -39.726562 20.640625 -35.082031 20.640625 -29.625 L 20.640625 -29.359375 C 25.921875 -30.609375 30.078125 -32.484375 33.109375 -34.984375 C 36.148438 -37.492188 37.671875 -40.398438 37.671875 -43.703125 C 37.671875 -45.398438 37.203125 -46.757812 36.265625 -47.78125 C 35.328125 -48.8125 34.050781 -49.328125 32.4375 -49.328125 Z M 50.671875 -71.1875 C 48.617188 -71.1875 46.96875 -71.695312 45.71875 -72.71875 C 44.46875 -73.75 43.660156 -75.648438 43.296875 -78.421875 L 40.21875 -102.15625 L 28.546875 -78.421875 C 27.210938 -75.648438 25.785156 -73.773438 24.265625 -72.796875 C 22.742188 -71.816406 21.046875 -71.328125 19.171875 -71.328125 C 17.296875 -71.328125 15.796875 -71.75 14.671875 -72.59375 C 13.554688 -73.445312 13 -74.675781 13 -76.28125 C 13 -77.800781 13.492188 -79.410156 14.484375 -81.109375 L 29.484375 -106.984375 C 31.097656 -109.753906 32.910156 -111.832031 34.921875 -113.21875 C 36.929688 -114.601562 39.320312 -115.296875 42.09375 -115.296875 C 44.769531 -115.296875 46.867188 -114.488281 48.390625 -112.875 C 49.910156 -111.269531 51.070312 -108.722656 51.875 -105.234375 L 57.78125 -81.109375 C 58.050781 -80.035156 58.1875 -79.050781 58.1875 -78.15625 C 58.1875 -75.925781 57.445312 -74.207031 55.96875 -73 C 54.488281 -71.789062 52.722656 -71.1875 50.671875 -71.1875 Z M 50.671875 -71.1875 "/></g></g></g><g fill="#000000" fill-opacity="1"><g transform="translate(332.526973, 137.239481)"><g><path d="M 76.546875 -29.890625 C 77.710938 -29.890625 78.628906 -29.351562 79.296875 -28.28125 C 79.960938 -27.207031 80.296875 -25.734375 80.296875 -23.859375 C 80.296875 -20.285156 79.445312 -17.515625 77.75 -15.546875 C 74.09375 -10.992188 70.207031 -7.148438 66.09375 -4.015625 C 61.976562 -0.890625 58 0.671875 54.15625 0.671875 C 51.207031 0.671875 48.503906 -0.332031 46.046875 -2.34375 C 43.585938 -4.351562 41.734375 -7.101562 40.484375 -10.59375 C 35.835938 -3.082031 29.984375 0.671875 22.921875 0.671875 C 17.378906 0.671875 12.953125 -1.335938 9.640625 -5.359375 C 6.335938 -9.378906 4.6875 -14.65625 4.6875 -21.1875 C 4.6875 -28.238281 6.335938 -34.984375 9.640625 -41.421875 C 12.953125 -47.859375 17.3125 -53.019531 22.71875 -56.90625 C 28.125 -60.789062 33.820312 -62.734375 39.8125 -62.734375 C 41.875 -62.734375 43.441406 -61.796875 44.515625 -59.921875 L 46.78125 -76.546875 L 27.609375 -76.546875 C 25.109375 -76.546875 23.457031 -77.015625 22.65625 -77.953125 C 21.851562 -78.890625 21.453125 -80.476562 21.453125 -82.71875 C 21.453125 -85.039062 21.894531 -86.867188 22.78125 -88.203125 C 23.675781 -89.546875 25.46875 -90.21875 28.15625 -90.21875 C 32.707031 -90.21875 36.992188 -90.085938 41.015625 -89.828125 C 44.421875 -89.640625 46.972656 -89.546875 48.671875 -89.546875 L 50.671875 -102.6875 C 51.472656 -108.226562 54.957031 -111 61.125 -111 C 63.894531 -111 65.90625 -110.550781 67.15625 -109.65625 C 68.414062 -108.769531 69.046875 -107.382812 69.046875 -105.5 C 69.046875 -105.0625 68.957031 -104.304688 68.78125 -103.234375 L 66.234375 -91.03125 L 68.90625 -91.03125 C 70.601562 -91.03125 71.875 -90.535156 72.71875 -89.546875 C 73.570312 -88.566406 74 -87.316406 74 -85.796875 C 74 -83.472656 73.191406 -81.617188 71.578125 -80.234375 C 69.972656 -78.847656 67.296875 -77.84375 63.546875 -77.21875 C 60.421875 -62.019531 57.738281 -48.035156 55.5 -35.265625 C 54.070312 -27.398438 53.359375 -21.8125 53.359375 -18.5 C 53.359375 -17.15625 53.691406 -16.082031 54.359375 -15.28125 C 55.035156 -14.476562 55.910156 -14.078125 56.984375 -14.078125 C 58.679688 -14.078125 60.734375 -15.171875 63.140625 -17.359375 C 65.554688 -19.546875 68.820312 -23.097656 72.9375 -28.015625 C 74 -29.265625 75.203125 -29.890625 76.546875 -29.890625 Z M 42.234375 -50.28125 C 38.472656 -50.1875 35.003906 -48.773438 31.828125 -46.046875 C 28.660156 -43.328125 26.140625 -39.734375 24.265625 -35.265625 C 22.390625 -30.796875 21.453125 -26.054688 21.453125 -21.046875 C 21.453125 -18.273438 22.007812 -16.21875 23.125 -14.875 C 24.238281 -13.539062 25.78125 -12.875 27.75 -12.875 C 29.71875 -12.875 31.59375 -14.035156 33.375 -16.359375 C 35.164062 -18.679688 36.460938 -21.765625 37.265625 -25.609375 Z M 42.234375 -50.28125 "/></g></g></g><g fill="#000000" fill-opacity="1"><g transform="translate(395.535458, 137.239481)"><g><path d="M 74.8125 -41.15625 C 75.96875 -41.15625 76.859375 -40.570312 77.484375 -39.40625 C 78.109375 -38.25 78.421875 -36.773438 78.421875 -34.984375 C 78.421875 -30.703125 77.125 -28.15625 74.53125 -27.34375 C 69.175781 -25.46875 63.28125 -24.394531 56.84375 -24.125 C 55.144531 -16.625 51.789062 -10.613281 46.78125 -6.09375 C 41.78125 -1.582031 36.109375 0.671875 29.765625 0.671875 C 24.398438 0.671875 19.816406 -0.625 16.015625 -3.21875 C 12.222656 -5.8125 9.34375 -9.25 7.375 -13.53125 C 5.40625 -17.820312 4.421875 -22.472656 4.421875 -27.484375 C 4.421875 -34.273438 5.71875 -40.328125 8.3125 -45.640625 C 10.90625 -50.960938 14.476562 -55.117188 19.03125 -58.109375 C 23.59375 -61.109375 28.644531 -62.609375 34.1875 -62.609375 C 40.976562 -62.609375 46.453125 -60.257812 50.609375 -55.5625 C 54.765625 -50.875 57.203125 -45.085938 57.921875 -38.203125 C 62.117188 -38.472656 67.125 -39.367188 72.9375 -40.890625 C 73.644531 -41.066406 74.269531 -41.15625 74.8125 -41.15625 Z M 30.828125 -13.546875 C 33.691406 -13.546875 36.171875 -14.707031 38.265625 -17.03125 C 40.367188 -19.351562 41.78125 -22.703125 42.5 -27.078125 C 39.726562 -28.953125 37.601562 -31.410156 36.125 -34.453125 C 34.65625 -37.492188 33.921875 -40.710938 33.921875 -44.109375 C 33.921875 -45.535156 34.050781 -46.960938 34.3125 -48.390625 L 33.65625 -48.390625 C 30.070312 -48.390625 27.097656 -46.671875 24.734375 -43.234375 C 22.367188 -39.796875 21.1875 -34.945312 21.1875 -28.6875 C 21.1875 -23.769531 22.144531 -20.015625 24.0625 -17.421875 C 25.988281 -14.835938 28.242188 -13.546875 30.828125 -13.546875 Z M 21.4375 -96.390625 C 20.90625 -96.390625 20.101562 -96.566406 19.03125 -96.921875 L 6.703125 -101.890625 C 4.554688 -102.785156 3.015625 -103.945312 2.078125 -105.375 C 1.140625 -106.800781 0.671875 -108.320312 0.671875 -109.9375 C 0.671875 -111.894531 1.40625 -113.609375 2.875 -115.078125 C 4.351562 -116.554688 6.070312 -117.296875 8.03125 -117.296875 C 9.914062 -117.296875 11.570312 -116.582031 13 -115.15625 L 23.59375 -104.5625 C 25.019531 -103.132812 25.734375 -101.796875 25.734375 -100.546875 C 25.734375 -99.378906 25.332031 -98.394531 24.53125 -97.59375 C 23.726562 -96.789062 22.695312 -96.390625 21.4375 -96.390625 Z M 18.890625 -70.65625 C 17.109375 -70.65625 15.613281 -71.007812 14.40625 -71.71875 C 13.195312 -72.4375 12.59375 -73.421875 12.59375 -74.671875 C 12.59375 -76.097656 13.441406 -77.796875 15.140625 -79.765625 L 26.140625 -92.375 C 29.710938 -96.394531 34.40625 -98.40625 40.21875 -98.40625 C 42.988281 -98.40625 45.195312 -97.820312 46.84375 -96.65625 C 48.5 -95.5 50 -93.625 51.34375 -91.03125 L 56.5625 -80.703125 C 57.375 -79.097656 57.78125 -77.671875 57.78125 -76.421875 C 57.78125 -74.535156 57.019531 -73.101562 55.5 -72.125 C 53.976562 -71.144531 52.234375 -70.65625 50.265625 -70.65625 C 48.742188 -70.65625 47.515625 -70.875 46.578125 -71.3125 C 45.640625 -71.757812 44.90625 -72.566406 44.375 -73.734375 L 37.796875 -87.671875 L 27.34375 -74 C 25.550781 -71.769531 22.734375 -70.65625 18.890625 -70.65625 Z M 18.890625 -70.65625 "/></g></g></g></svg>